<mxfile host="Electron" modified="2023-07-31T09:18:36.449Z" agent="Mozilla/5.0 (Windows NT 10.0; Win64; x64) AppleWebKit/537.36 (KHTML, like Gecko) draw.io/21.6.5 Chrome/114.0.5735.243 Electron/25.3.1 Safari/537.36" etag="5E-Q3EMl7hGCYTmvI6-z" version="21.6.5" type="device">
  <diagram id="C5RBs43oDa-KdzZeNtuy" name="Page-1">
    <mxGraphModel dx="987" dy="577" grid="1" gridSize="10" guides="1" tooltips="1" connect="1" arrows="1" fold="1" page="1" pageScale="1" pageWidth="827" pageHeight="1169" math="0" shadow="0">
      <root>
        <mxCell id="WIyWlLk6GJQsqaUBKTNV-0" />
        <mxCell id="WIyWlLk6GJQsqaUBKTNV-1" parent="WIyWlLk6GJQsqaUBKTNV-0" />
        <mxCell id="dVi34uFo3yBI7F68kZax-25" style="edgeStyle=orthogonalEdgeStyle;rounded=0;orthogonalLoop=1;jettySize=auto;html=1;exitX=1;exitY=0.5;exitDx=0;exitDy=0;entryX=0.5;entryY=0;entryDx=0;entryDy=0;" edge="1" parent="WIyWlLk6GJQsqaUBKTNV-1" source="dVi34uFo3yBI7F68kZax-4" target="dVi34uFo3yBI7F68kZax-17">
          <mxGeometry relative="1" as="geometry" />
        </mxCell>
        <mxCell id="dVi34uFo3yBI7F68kZax-77" style="edgeStyle=orthogonalEdgeStyle;rounded=0;orthogonalLoop=1;jettySize=auto;html=1;exitX=0;exitY=0.5;exitDx=0;exitDy=0;entryX=0.5;entryY=0;entryDx=0;entryDy=0;" edge="1" parent="WIyWlLk6GJQsqaUBKTNV-1" source="dVi34uFo3yBI7F68kZax-4" target="dVi34uFo3yBI7F68kZax-59">
          <mxGeometry relative="1" as="geometry" />
        </mxCell>
        <mxCell id="dVi34uFo3yBI7F68kZax-80" style="edgeStyle=orthogonalEdgeStyle;rounded=0;orthogonalLoop=1;jettySize=auto;html=1;exitX=0.625;exitY=1;exitDx=0;exitDy=0;entryX=0.5;entryY=0;entryDx=0;entryDy=0;" edge="1" parent="WIyWlLk6GJQsqaUBKTNV-1" source="dVi34uFo3yBI7F68kZax-4" target="dVi34uFo3yBI7F68kZax-66">
          <mxGeometry relative="1" as="geometry" />
        </mxCell>
        <mxCell id="dVi34uFo3yBI7F68kZax-105" style="edgeStyle=orthogonalEdgeStyle;rounded=0;orthogonalLoop=1;jettySize=auto;html=1;exitX=0;exitY=0.5;exitDx=0;exitDy=0;entryX=0.5;entryY=0;entryDx=0;entryDy=0;" edge="1" parent="WIyWlLk6GJQsqaUBKTNV-1" source="dVi34uFo3yBI7F68kZax-4" target="dVi34uFo3yBI7F68kZax-61">
          <mxGeometry relative="1" as="geometry" />
        </mxCell>
        <mxCell id="dVi34uFo3yBI7F68kZax-106" style="edgeStyle=orthogonalEdgeStyle;rounded=0;orthogonalLoop=1;jettySize=auto;html=1;exitX=0.375;exitY=1;exitDx=0;exitDy=0;entryX=0.5;entryY=0;entryDx=0;entryDy=0;" edge="1" parent="WIyWlLk6GJQsqaUBKTNV-1" source="dVi34uFo3yBI7F68kZax-4" target="dVi34uFo3yBI7F68kZax-64">
          <mxGeometry relative="1" as="geometry">
            <Array as="points">
              <mxPoint x="435" y="340" />
            </Array>
          </mxGeometry>
        </mxCell>
        <mxCell id="dVi34uFo3yBI7F68kZax-107" style="edgeStyle=orthogonalEdgeStyle;rounded=0;orthogonalLoop=1;jettySize=auto;html=1;exitX=0.625;exitY=1;exitDx=0;exitDy=0;entryX=0.5;entryY=0;entryDx=0;entryDy=0;" edge="1" parent="WIyWlLk6GJQsqaUBKTNV-1" source="dVi34uFo3yBI7F68kZax-4" target="dVi34uFo3yBI7F68kZax-67">
          <mxGeometry relative="1" as="geometry">
            <Array as="points">
              <mxPoint x="629" y="340" />
            </Array>
          </mxGeometry>
        </mxCell>
        <mxCell id="dVi34uFo3yBI7F68kZax-4" value="media" style="shape=hexagon;perimeter=hexagonPerimeter2;whiteSpace=wrap;html=1;fixedSize=1;" vertex="1" parent="WIyWlLk6GJQsqaUBKTNV-1">
          <mxGeometry x="369" y="300" width="300" height="40" as="geometry" />
        </mxCell>
        <mxCell id="dVi34uFo3yBI7F68kZax-49" style="edgeStyle=orthogonalEdgeStyle;rounded=0;orthogonalLoop=1;jettySize=auto;html=1;exitX=0.5;exitY=1;exitDx=0;exitDy=0;entryX=0.5;entryY=0;entryDx=0;entryDy=0;" edge="1" parent="WIyWlLk6GJQsqaUBKTNV-1" source="dVi34uFo3yBI7F68kZax-5" target="dVi34uFo3yBI7F68kZax-7">
          <mxGeometry relative="1" as="geometry" />
        </mxCell>
        <mxCell id="dVi34uFo3yBI7F68kZax-5" value="INICIO" style="ellipse;whiteSpace=wrap;html=1;" vertex="1" parent="WIyWlLk6GJQsqaUBKTNV-1">
          <mxGeometry x="459" y="110" width="110" height="50" as="geometry" />
        </mxCell>
        <mxCell id="dVi34uFo3yBI7F68kZax-6" value="FIN" style="ellipse;whiteSpace=wrap;html=1;" vertex="1" parent="WIyWlLk6GJQsqaUBKTNV-1">
          <mxGeometry x="439" y="520" width="110" height="50" as="geometry" />
        </mxCell>
        <mxCell id="dVi34uFo3yBI7F68kZax-50" style="edgeStyle=orthogonalEdgeStyle;rounded=0;orthogonalLoop=1;jettySize=auto;html=1;exitX=0.5;exitY=1;exitDx=0;exitDy=0;entryX=0.5;entryY=0;entryDx=0;entryDy=0;" edge="1" parent="WIyWlLk6GJQsqaUBKTNV-1" source="dVi34uFo3yBI7F68kZax-7" target="dVi34uFo3yBI7F68kZax-62">
          <mxGeometry relative="1" as="geometry">
            <mxPoint x="509" y="230" as="targetPoint" />
          </mxGeometry>
        </mxCell>
        <mxCell id="dVi34uFo3yBI7F68kZax-7" value="n1,n2,n3" style="shape=parallelogram;perimeter=parallelogramPerimeter;whiteSpace=wrap;html=1;fixedSize=1;" vertex="1" parent="WIyWlLk6GJQsqaUBKTNV-1">
          <mxGeometry x="454" y="180" width="120" height="40" as="geometry" />
        </mxCell>
        <mxCell id="dVi34uFo3yBI7F68kZax-17" value="&quot;La opciÃ³n escogida no es valida&quot;" style="shape=document;whiteSpace=wrap;html=1;boundedLbl=1;" vertex="1" parent="WIyWlLk6GJQsqaUBKTNV-1">
          <mxGeometry x="690" y="370" width="90" height="70" as="geometry" />
        </mxCell>
        <mxCell id="dVi34uFo3yBI7F68kZax-52" style="edgeStyle=orthogonalEdgeStyle;rounded=0;orthogonalLoop=1;jettySize=auto;html=1;exitX=0.5;exitY=1;exitDx=0;exitDy=0;entryX=0.5;entryY=0;entryDx=0;entryDy=0;" edge="1" parent="WIyWlLk6GJQsqaUBKTNV-1" source="dVi34uFo3yBI7F68kZax-18" target="dVi34uFo3yBI7F68kZax-6">
          <mxGeometry relative="1" as="geometry">
            <mxPoint x="514" y="510" as="targetPoint" />
          </mxGeometry>
        </mxCell>
        <mxCell id="dVi34uFo3yBI7F68kZax-96" style="edgeStyle=orthogonalEdgeStyle;rounded=0;orthogonalLoop=1;jettySize=auto;html=1;exitX=0;exitY=0.5;exitDx=0;exitDy=0;entryX=0.503;entryY=0.858;entryDx=0;entryDy=0;entryPerimeter=0;startArrow=classic;startFill=1;endArrow=none;endFill=0;" edge="1" parent="WIyWlLk6GJQsqaUBKTNV-1" source="dVi34uFo3yBI7F68kZax-18" target="dVi34uFo3yBI7F68kZax-59">
          <mxGeometry relative="1" as="geometry" />
        </mxCell>
        <mxCell id="dVi34uFo3yBI7F68kZax-97" style="edgeStyle=orthogonalEdgeStyle;rounded=0;orthogonalLoop=1;jettySize=auto;html=1;exitX=0;exitY=0.5;exitDx=0;exitDy=0;entryX=0.47;entryY=0.873;entryDx=0;entryDy=0;entryPerimeter=0;startArrow=classic;startFill=1;endArrow=none;endFill=0;" edge="1" parent="WIyWlLk6GJQsqaUBKTNV-1" source="dVi34uFo3yBI7F68kZax-18" target="dVi34uFo3yBI7F68kZax-61">
          <mxGeometry relative="1" as="geometry" />
        </mxCell>
        <mxCell id="dVi34uFo3yBI7F68kZax-98" style="edgeStyle=orthogonalEdgeStyle;rounded=0;orthogonalLoop=1;jettySize=auto;html=1;exitX=0;exitY=0.5;exitDx=0;exitDy=0;entryX=0.544;entryY=0.812;entryDx=0;entryDy=0;entryPerimeter=0;startArrow=classic;startFill=1;endArrow=none;endFill=0;" edge="1" parent="WIyWlLk6GJQsqaUBKTNV-1" source="dVi34uFo3yBI7F68kZax-18" target="dVi34uFo3yBI7F68kZax-64">
          <mxGeometry relative="1" as="geometry" />
        </mxCell>
        <mxCell id="dVi34uFo3yBI7F68kZax-99" style="edgeStyle=orthogonalEdgeStyle;rounded=0;orthogonalLoop=1;jettySize=auto;html=1;exitX=1;exitY=0.5;exitDx=0;exitDy=0;entryX=0.522;entryY=0.858;entryDx=0;entryDy=0;entryPerimeter=0;startArrow=classic;startFill=1;endArrow=none;endFill=0;" edge="1" parent="WIyWlLk6GJQsqaUBKTNV-1" source="dVi34uFo3yBI7F68kZax-18" target="dVi34uFo3yBI7F68kZax-66">
          <mxGeometry relative="1" as="geometry">
            <Array as="points">
              <mxPoint x="536" y="480" />
              <mxPoint x="536" y="445" />
            </Array>
          </mxGeometry>
        </mxCell>
        <mxCell id="dVi34uFo3yBI7F68kZax-100" style="edgeStyle=orthogonalEdgeStyle;rounded=0;orthogonalLoop=1;jettySize=auto;html=1;exitX=1;exitY=0.5;exitDx=0;exitDy=0;entryX=0.527;entryY=0.812;entryDx=0;entryDy=0;entryPerimeter=0;startArrow=classic;startFill=1;endArrow=none;endFill=0;" edge="1" parent="WIyWlLk6GJQsqaUBKTNV-1" source="dVi34uFo3yBI7F68kZax-18" target="dVi34uFo3yBI7F68kZax-67">
          <mxGeometry relative="1" as="geometry" />
        </mxCell>
        <mxCell id="dVi34uFo3yBI7F68kZax-104" style="edgeStyle=orthogonalEdgeStyle;rounded=0;orthogonalLoop=1;jettySize=auto;html=1;exitX=1;exitY=0.5;exitDx=0;exitDy=0;entryX=0.54;entryY=0.798;entryDx=0;entryDy=0;entryPerimeter=0;startArrow=classic;startFill=1;endArrow=none;endFill=0;" edge="1" parent="WIyWlLk6GJQsqaUBKTNV-1" source="dVi34uFo3yBI7F68kZax-18" target="dVi34uFo3yBI7F68kZax-17">
          <mxGeometry relative="1" as="geometry" />
        </mxCell>
        <mxCell id="dVi34uFo3yBI7F68kZax-18" value="" style="ellipse;whiteSpace=wrap;html=1;aspect=fixed;" vertex="1" parent="WIyWlLk6GJQsqaUBKTNV-1">
          <mxGeometry x="484" y="470" width="20" height="20" as="geometry" />
        </mxCell>
        <mxCell id="dVi34uFo3yBI7F68kZax-29" value="6" style="text;html=1;strokeColor=none;fillColor=none;align=center;verticalAlign=middle;whiteSpace=wrap;rounded=0;" vertex="1" parent="WIyWlLk6GJQsqaUBKTNV-1">
          <mxGeometry x="389" y="340" width="60" height="30" as="geometry" />
        </mxCell>
        <mxCell id="dVi34uFo3yBI7F68kZax-30" value="default" style="text;html=1;strokeColor=none;fillColor=none;align=center;verticalAlign=middle;whiteSpace=wrap;rounded=0;" vertex="1" parent="WIyWlLk6GJQsqaUBKTNV-1">
          <mxGeometry x="669" y="330" width="60" height="30" as="geometry" />
        </mxCell>
        <mxCell id="dVi34uFo3yBI7F68kZax-34" value="5" style="text;html=1;strokeColor=none;fillColor=none;align=center;verticalAlign=middle;whiteSpace=wrap;rounded=0;" vertex="1" parent="WIyWlLk6GJQsqaUBKTNV-1">
          <mxGeometry x="300" y="330" width="60" height="30" as="geometry" />
        </mxCell>
        <mxCell id="dVi34uFo3yBI7F68kZax-57" value="0,1,2,3,4" style="text;html=1;strokeColor=none;fillColor=none;align=center;verticalAlign=middle;whiteSpace=wrap;rounded=0;" vertex="1" parent="WIyWlLk6GJQsqaUBKTNV-1">
          <mxGeometry x="190" y="330" width="60" height="30" as="geometry" />
        </mxCell>
        <mxCell id="dVi34uFo3yBI7F68kZax-59" value="Insuficiente" style="shape=document;whiteSpace=wrap;html=1;boundedLbl=1;" vertex="1" parent="WIyWlLk6GJQsqaUBKTNV-1">
          <mxGeometry x="220" y="370" width="70" height="50" as="geometry" />
        </mxCell>
        <mxCell id="dVi34uFo3yBI7F68kZax-61" value="Suficiente" style="shape=document;whiteSpace=wrap;html=1;boundedLbl=1;" vertex="1" parent="WIyWlLk6GJQsqaUBKTNV-1">
          <mxGeometry x="310" y="370" width="70" height="50" as="geometry" />
        </mxCell>
        <mxCell id="dVi34uFo3yBI7F68kZax-63" style="edgeStyle=orthogonalEdgeStyle;rounded=0;orthogonalLoop=1;jettySize=auto;html=1;exitX=0.5;exitY=1;exitDx=0;exitDy=0;entryX=0.469;entryY=-0.085;entryDx=0;entryDy=0;entryPerimeter=0;" edge="1" parent="WIyWlLk6GJQsqaUBKTNV-1" source="dVi34uFo3yBI7F68kZax-62" target="dVi34uFo3yBI7F68kZax-4">
          <mxGeometry relative="1" as="geometry" />
        </mxCell>
        <mxCell id="dVi34uFo3yBI7F68kZax-62" value="media=(n1+n2+n3)/3" style="rounded=0;whiteSpace=wrap;html=1;" vertex="1" parent="WIyWlLk6GJQsqaUBKTNV-1">
          <mxGeometry x="449" y="240" width="120" height="40" as="geometry" />
        </mxCell>
        <mxCell id="dVi34uFo3yBI7F68kZax-64" value="Bien" style="shape=document;whiteSpace=wrap;html=1;boundedLbl=1;" vertex="1" parent="WIyWlLk6GJQsqaUBKTNV-1">
          <mxGeometry x="400" y="370" width="70" height="50" as="geometry" />
        </mxCell>
        <mxCell id="dVi34uFo3yBI7F68kZax-66" value="Notable" style="shape=document;whiteSpace=wrap;html=1;boundedLbl=1;" vertex="1" parent="WIyWlLk6GJQsqaUBKTNV-1">
          <mxGeometry x="499" y="370" width="70" height="50" as="geometry" />
        </mxCell>
        <mxCell id="dVi34uFo3yBI7F68kZax-67" value="Sobresaliente" style="shape=document;whiteSpace=wrap;html=1;boundedLbl=1;" vertex="1" parent="WIyWlLk6GJQsqaUBKTNV-1">
          <mxGeometry x="590" y="370" width="79" height="50" as="geometry" />
        </mxCell>
        <mxCell id="dVi34uFo3yBI7F68kZax-89" value="9,10" style="text;html=1;strokeColor=none;fillColor=none;align=center;verticalAlign=middle;whiteSpace=wrap;rounded=0;" vertex="1" parent="WIyWlLk6GJQsqaUBKTNV-1">
          <mxGeometry x="580" y="340" width="60" height="30" as="geometry" />
        </mxCell>
        <mxCell id="dVi34uFo3yBI7F68kZax-90" value="7,8" style="text;html=1;strokeColor=none;fillColor=none;align=center;verticalAlign=middle;whiteSpace=wrap;rounded=0;" vertex="1" parent="WIyWlLk6GJQsqaUBKTNV-1">
          <mxGeometry x="484" y="340" width="60" height="30" as="geometry" />
        </mxCell>
      </root>
    </mxGraphModel>
  </diagram>
</mxfile>
